<svg xmlns="http://www.w3.org/2000/svg" viewBox="0 0 256 39" width="256" height="39"><defs></defs><g>
<g>
	<g>
		<path d="M9.245246023727638,18.5636985713209 Q8.0210460905938,18.5636985713209 6.896312402027085,18.165833593052405 Q5.779229963042458,17.767968614783904 5.167129996475539,17.140566149052813 Q5.626204971400728,16.245369947948696 5.626204971400728,16.245369947948696 Q6.200048690057215,16.811562417023094 7.179408636564286,17.19412489612742 Q8.158768583071357,17.576687375231742 9.245246023727638,17.576687375231742 Q10.278164717309313,17.576687375231742 10.928520931786665,17.324196139022888 Q11.578877146264016,17.064053653231948 11.884927129547478,16.627932427053018 Q12.190977112830936,16.184159951292003 12.190977112830936,15.648572480545948 Q12.190977112830936,15.005867515650682 11.823717132890785,14.615653786964272 Q11.456457152950634,14.22544005827786 10.859659685547888,14.003553820397352 Q10.262862218145141,13.774016332934757 9.535993507846925,13.605688842128854 Q8.816776047130794,13.429710101740865 8.097558586414664,13.230777612606616 Q7.378341125698534,13.031845123472367 6.773892408713701,12.702841391442648 Q6.169443691728869,12.37383765941293 5.802183711788717,11.838250188666875 Q5.434923731848566,11.295011468338735 5.434923731848566,10.415117766398787 Q5.434923731848566,9.60408531069762 5.863393708445409,8.923124097891922 Q6.299514934624339,8.242162885086225 7.187059886146372,7.828995407653554 Q8.082256087250492,7.408176680638798 9.474783511190232,7.408176680638798 Q10.400584710622699,7.408176680638798 11.31108341089099,7.668319166429738 Q12.221582111159282,7.928461652220679 12.87958957521872,8.379885377563781 Q12.48937584653231,9.305686576996248 12.48937584653231,9.305686576996248 Q11.785460884980353,8.831309102906886 10.989730928443358,8.617074114608464 Q10.201652221488448,8.395187876727954 9.45948101202606,8.395187876727954 Q8.472469815936902,8.395187876727954 7.829764851041637,8.662981612100982 Q7.187059886146372,8.93077534747401 6.881009902862912,9.382199072817112 Q6.58261116916154,9.825971548578128 6.58261116916154,10.384512768070442 Q6.58261116916154,11.027217732965706 6.949871149101691,11.425082711234204 Q7.317131129041842,11.815296439920616 7.921579846026675,12.037182677801123 Q8.526028563011508,12.251417666099545 9.245246023727638,12.427396406487535 Q9.964463484443769,12.595723897293437 10.67602969557781,12.802307636009774 Q11.387595906711855,13.001240125144022 11.992044623696689,13.322592607591654 Q12.596493340681521,13.643945090039287 12.963753320621672,14.179532560785342 Q13.331013300561823,14.70746878194931 13.331013300561823,15.572059984725081 Q13.331013300561823,16.375441190844164 12.894892074382893,17.056402403649862 Q12.458770848203963,17.73736361645556 11.555923397517757,18.15053109388823 Q10.653075946831553,18.5636985713209 9.245246023727638,18.5636985713209 Q9.245246023727638,18.5636985713209 9.245246023727638,18.5636985713209 ZM18.224140582736243,18.548396072156727 Q17.061150646259097,18.548396072156727 16.433748180528006,17.920993606425633 Q15.806345714796914,17.29359114069454 15.806345714796914,16.153554952963656 Q15.806345714796914,8.4257928750563 15.806345714796914,8.4257928750563 C15.806345714796914,8.4257928750563 16.92342815378154,8.4257928750563 16.92342815378154,8.4257928750563 C16.92342815378154,8.4257928750563 16.92342815378154,16.092344956306963 16.92342815378154,16.092344956306963 Q16.92342815378154,16.811562417023094 17.290688133721694,17.201776145709502 Q17.657948113661845,17.591989874395914 18.346560576049626,17.591989874395914 Q19.081080535929928,17.591989874395914 19.570760509183465,17.17117114738116 Q19.960974237869877,17.966901103918154 19.960974237869877,17.966901103918154 Q19.631970505840158,18.265299837619526 19.165244281332882,18.41067357967917 Q18.706169306407695,18.548396072156727 18.224140582736243,18.548396072156727 Q18.224140582736243,18.548396072156727 18.224140582736243,18.548396072156727 ZM14.337305795036308,11.17259147502535 C14.337305795036308,11.17259147502535 14.337305795036308,10.246790275592886 14.337305795036308,10.246790275592886 C14.337305795036308,10.246790275592886 19.425386767123822,10.246790275592886 19.425386767123822,10.246790275592886 C19.425386767123822,10.246790275592886 19.425386767123822,11.17259147502535 19.425386767123822,11.17259147502535 C19.425386767123822,11.17259147502535 14.337305795036308,11.17259147502535 14.337305795036308,11.17259147502535 ZM21.984638221269858,18.471883576335863 C21.984638221269858,18.471883576335863 21.984638221269858,10.246790275592886 21.984638221269858,10.246790275592886 C21.984638221269858,10.246790275592886 23.048161913179882,10.246790275592886 23.048161913179882,10.246790275592886 C23.048161913179882,10.246790275592886 23.048161913179882,12.488606403144226 23.048161913179882,12.488606403144226 C23.048161913179882,12.488606403144226 22.94104441903067,12.090741424875729 22.94104441903067,12.090741424875729 Q23.28535065022456,11.157288975861178 24.096383105925728,10.667609002607641 Q24.915066811208984,10.17027777977202 26.116312995596562,10.17027777977202 Q26.116312995596562,11.249103970846216 26.116312995596562,11.249103970846216 Q26.05510299893987,11.249103970846216 25.99389300228318,11.241452721264128 Q25.932683005626487,11.233801471682042 25.871473008969794,11.233801471682042 Q24.570760580015094,11.233801471682042 23.828589370552702,12.029531428219038 Q23.0940694106724,12.817610135173945 23.0940694106724,14.27134755577038 Q23.0940694106724,18.471883576335863 23.0940694106724,18.471883576335863 C23.0940694106724,18.471883576335863 21.984638221269858,18.471883576335863 21.984638221269858,18.471883576335863 ZM32.782693955634585,18.471883576335863 C32.782693955634585,18.471883576335863 32.782693955634585,16.65088617579928 32.782693955634585,16.65088617579928 C32.782693955634585,16.65088617579928 32.72913520855998,16.360138691679992 32.72913520855998,16.360138691679992 C32.72913520855998,16.360138691679992 32.72913520855998,13.314941358009568 32.72913520855998,13.314941358009568 Q32.72913520855998,12.266720165263719 32.13998899073932,11.708178945771404 Q31.558494022500746,11.141986476697005 30.395504086023596,11.141986476697005 Q29.5997741294866,11.141986476697005 28.872905419188385,11.409780212070032 Q28.153687958472258,11.669922697860972 27.656356735636635,12.11369517362199 Q27.151374263218926,11.27970896917456 27.151374263218926,11.27970896917456 Q27.778776728950017,10.744121498428507 28.658670430889963,10.461025263891308 Q29.53856413282991,10.17027777977202 30.510272829754896,10.17027777977202 Q32.10173274282889,10.17027777977202 32.973975195186746,10.958356486726927 Q33.846217647544606,11.746435193681837 33.846217647544606,13.360848855502086 Q33.846217647544606,18.471883576335863 33.846217647544606,18.471883576335863 C33.846217647544606,18.471883576335863 32.782693955634585,18.471883576335863 32.782693955634585,18.471883576335863 ZM29.944080360680495,18.548396072156727 Q29.018279161248028,18.548396072156727 28.337317948442333,18.24234608887327 Q27.656356735636635,17.936296105589808 27.29674800527857,17.400708634843753 Q26.937139274920504,16.85746991451561 26.937139274920504,16.153554952963656 Q26.937139274920504,15.51084998806839 27.243189258203962,14.990565016486508 Q27.549239241487424,14.46262879532254 28.245502953457294,14.141276312874908 Q28.941766665427163,13.819923830427276 30.1124078514864,13.819923830427276 Q32.951021446440485,13.819923830427276 32.951021446440485,13.819923830427276 C32.951021446440485,13.819923830427276 32.951021446440485,14.646258785292616 32.951021446440485,14.646258785292616 C32.951021446440485,14.646258785292616 30.143012849814742,14.646258785292616 30.143012849814742,14.646258785292616 Q28.95706916459134,14.646258785292616 28.490342940084062,15.07472876188946 Q28.03126796515887,15.495547488904217 28.03126796515887,16.12294995463531 Q28.03126796515887,16.82686491618727 28.574506685487012,17.25533489278411 Q29.12539665539724,17.676153619798868 30.1124078514864,17.676153619798868 Q31.053511550083037,17.676153619798868 31.734472762888732,17.247683643202024 Q32.41543397569443,16.811562417023094 32.72913520855998,15.99287871173984 Q32.981626444768835,16.765654919530576 32.981626444768835,16.765654919530576 Q32.66792521190328,17.576687375231742 31.887497754530465,18.06636734848528 Q31.114721546739727,18.548396072156727 29.944080360680495,18.548396072156727 Q29.944080360680495,18.548396072156727 29.944080360680495,18.548396072156727 ZM39.47233501327908,18.548396072156727 Q38.30934507680193,18.548396072156727 37.681942611070845,17.920993606425633 Q37.05454014533975,17.29359114069454 37.05454014533975,16.153554952963656 Q37.05454014533975,8.4257928750563 37.05454014533975,8.4257928750563 C37.05454014533975,8.4257928750563 38.171622584324375,8.4257928750563 38.171622584324375,8.4257928750563 C38.171622584324375,8.4257928750563 38.171622584324375,16.092344956306963 38.171622584324375,16.092344956306963 Q38.171622584324375,16.811562417023094 38.53888256426453,17.201776145709502 Q38.906142544204684,17.591989874395914 39.594755006592464,17.591989874395914 Q40.32927496647277,17.591989874395914 40.818954939726304,17.17117114738116 Q41.209168668412715,17.966901103918154 41.209168668412715,17.966901103918154 Q40.880164936383,18.265299837619526 40.41343871187572,18.41067357967917 Q39.95436373695053,18.548396072156727 39.47233501327908,18.548396072156727 Q39.47233501327908,18.548396072156727 39.47233501327908,18.548396072156727 ZM35.585500225579146,11.17259147502535 C35.585500225579146,11.17259147502535 35.585500225579146,10.246790275592886 35.585500225579146,10.246790275592886 C35.585500225579146,10.246790275592886 40.673581197666664,10.246790275592886 40.673581197666664,10.246790275592886 C40.673581197666664,10.246790275592886 40.673581197666664,11.17259147502535 40.673581197666664,11.17259147502535 C40.673581197666664,11.17259147502535 35.585500225579146,11.17259147502535 35.585500225579146,11.17259147502535 ZM46.42407620065056,18.548396072156727 Q45.14631752044212,18.548396072156727 44.17460882351713,18.012808601410672 Q43.20290012659215,17.46956988108253 42.652010156681925,16.520814932903807 Q42.101120186771695,15.572059984725081 42.101120186771695,14.347860051591244 Q42.101120186771695,13.131311368039492 42.621405158353575,12.190207669442854 Q43.149341379517544,11.249103970846216 44.067491329367925,10.71351650010016 Q44.98564127921831,10.17027777977202 46.133328716531274,10.17027777977202 Q47.28866740342634,10.17027777977202 48.19151485411254,10.698214000935987 Q49.09436230479875,11.21849897251787 49.60699602679854,12.167253920696593 Q50.12728099838042,13.11600886887532 50.12728099838042,14.347860051591244 Q50.12728099838042,14.432023796994194 50.11962974879834,14.516187542397146 Q50.11197849921625,14.600351287800098 50.11197849921625,14.692166282785136 Q42.950408890383294,14.692166282785136 42.950408890383294,14.692166282785136 C42.950408890383294,14.692166282785136 42.950408890383294,13.865831327919794 42.950408890383294,13.865831327919794 C42.950408890383294,13.865831327919794 49.515181031813505,13.865831327919794 49.515181031813505,13.865831327919794 C49.515181031813505,13.865831327919794 49.07905980563458,14.194835059949513 49.07905980563458,14.194835059949513 Q49.07905980563458,13.299638858845395 48.68884607694817,12.603375146875525 Q48.30628359784384,11.907111434905653 47.6482761337844,11.516897706219243 Q46.99026866972496,11.119032727950746 46.133328716531274,11.119032727950746 Q45.284040012919675,11.119032727950746 44.610730049696066,11.516897706219243 Q43.93742008647246,11.907111434905653 43.56250885695022,12.61102639645761 Q43.18759762742798,13.314941358009568 43.18759762742798,14.22544005827786 Q43.18759762742798,14.40141879866585 43.18759762742798,14.40141879866585 Q43.18759762742798,15.3348712476804 43.60076510486065,16.05408870839653 Q44.01393258229332,16.765654919530576 44.756103791755706,17.16351989779907 Q45.50592625080019,17.56138487606757 46.46233244856099,17.56138487606757 Q47.21215490760547,17.56138487606757 47.86251112208282,17.301242390276627 Q48.51286733656018,17.0334486549036 48.97959356106745,16.482558684993375 Q49.60699602679854,17.201776145709502 49.60699602679854,17.201776145709502 Q49.0637573064704,17.859783609768943 48.23742235160506,18.204089840962837 Q47.41108739673972,18.548396072156727 46.42407620065056,18.548396072156727 Q46.42407620065056,18.548396072156727 46.42407620065056,18.548396072156727 ZM55.91156590705045,21.59359340582715 Q54.77918096890165,21.59359340582715 53.74626227531997,21.26458967379743 Q52.7133435817383,20.935585941767712 52.070638616843034,20.32348597520079 Q52.62917983633535,19.47419727158919 52.62917983633535,19.47419727158919 Q53.21067480457392,19.99448224317107 54.05996350818552,20.300532226454536 Q54.916903461379206,20.606582209737994 55.87330965914002,20.606582209737994 Q57.44181582346775,20.606582209737994 58.17633578334805,19.87206224985769 Q58.91850699281044,19.14519353955947 58.91850699281044,17.60729237356009 Q58.91850699281044,15.55675748556091 58.91850699281044,15.55675748556091 C58.91850699281044,15.55675748556091 59.07153198445217,14.148927562456995 59.07153198445217,14.148927562456995 C59.07153198445217,14.148927562456995 58.96441449030296,12.733446389770995 58.96441449030296,12.733446389770995 C58.96441449030296,12.733446389770995 58.96441449030296,10.246790275592886 58.96441449030296,10.246790275592886 C58.96441449030296,10.246790275592886 60.027938182212985,10.246790275592886 60.027938182212985,10.246790275592886 C60.027938182212985,10.246790275592886 60.027938182212985,17.46956988108253 60.027938182212985,17.46956988108253 Q60.027938182212985,19.596617264902576 58.98736823904922,20.591279710573822 Q57.94679829588546,21.59359340582715 55.91156590705045,21.59359340582715 Q55.91156590705045,21.59359340582715 55.91156590705045,21.59359340582715 ZM55.70498216833411,18.158182343470315 Q54.526689732692795,18.158182343470315 53.58558603409616,17.653199871052607 Q52.65213358508161,17.140566149052813 52.108894864753466,16.23006744878452 Q51.565656144425326,15.319568748516227 51.565656144425326,14.148927562456995 Q51.565656144425326,12.970635126815676 52.108894864753466,12.075438925711556 Q52.65213358508161,11.17259147502535 53.58558603409616,10.675260252189728 Q54.526689732692795,10.17027777977202 55.70498216833411,10.17027777977202 Q56.79911085857248,10.17027777977202 57.67900456051243,10.621701505115123 Q58.558898262452374,11.073125230458226 59.07153198445217,11.968321431562345 Q59.59181695603405,12.863517632666465 59.59181695603405,14.148927562456995 Q59.59181695603405,15.434337492247526 59.07153198445217,16.329533693351642 Q58.558898262452374,17.217078644873677 57.67900456051243,17.69145611896304 Q56.79911085857248,18.158182343470315 55.70498216833411,18.158182343470315 Q55.70498216833411,18.158182343470315 55.70498216833411,18.158182343470315 ZM55.81209966248333,17.17117114738116 Q56.72259836275162,17.17117114738116 57.42651332430358,16.788608668276837 Q58.13042828585553,16.406046189172507 58.53594451370611,15.725084976366812 Q58.949111991138786,15.036472513979028 58.949111991138786,14.148927562456995 Q58.949111991138786,13.253731361352875 58.53594451370611,12.580421398129264 Q58.13042828585553,11.907111434905653 57.42651332430358,11.524548955801329 Q56.72259836275162,11.141986476697005 55.81209966248333,11.141986476697005 Q54.916903461379206,11.141986476697005 54.205337250245165,11.524548955801329 Q53.49377103911112,11.907111434905653 53.09590606084262,12.580421398129264 Q52.69804108257412,13.253731361352875 52.69804108257412,14.148927562456995 Q52.69804108257412,15.036472513979028 53.09590606084262,15.725084976366812 Q53.49377103911112,16.406046189172507 54.205337250245165,16.788608668276837 Q54.916903461379206,17.17117114738116 55.81209966248333,17.17117114738116 Q55.81209966248333,17.17117114738116 55.81209966248333,17.17117114738116 ZM63.1319582330074,21.59359340582715 Q62.55046326476883,21.59359340582715 62.02252704360486,21.40231216627499 Q61.50224207202298,21.211030926722827 61.12733084250075,20.836119697200587 Q61.63996456450054,20.00978474233525 61.63996456450054,20.00978474233525 Q61.953665797366085,20.308183476036618 62.320925777306236,20.468859717260436 Q62.69583700682848,20.637187208066337 63.14726073217158,20.637187208066337 Q63.698150702081804,20.637187208066337 64.0960156803503,20.33113722478288 Q64.49388065861879,20.02508724149942 64.85348938897687,19.252311033708686 Q65.38907685972292,18.051064849321104 65.38907685972292,18.051064849321104 C65.38907685972292,18.051064849321104 65.5114968530363,17.875086108933118 65.5114968530363,17.875086108933118 C65.5114968530363,17.875086108933118 68.90100041790062,10.246790275592886 68.90100041790062,10.246790275592886 C68.90100041790062,10.246790275592886 69.99512910813898,10.246790275592886 69.99512910813898,10.246790275592886 C69.99512910813898,10.246790275592886 65.87110558339437,19.45889477242502 65.87110558339437,19.45889477242502 Q65.52679935220047,20.254624728962014 65.1136318747678,20.72135095346929 Q64.70046439733514,21.19572842755865 64.2107844240816,21.3946609166929 Q63.728755700410154,21.59359340582715 63.1319582330074,21.59359340582715 Q63.1319582330074,21.59359340582715 63.1319582330074,21.59359340582715 ZM65.32786686306622,18.709072313380545 C65.32786686306622,18.709072313380545 61.53284707035133,10.246790275592886 61.53284707035133,10.246790275592886 C61.53284707035133,10.246790275592886 62.69583700682848,10.246790275592886 62.69583700682848,10.246790275592886 C62.69583700682848,10.246790275592886 66.04708432378236,17.79857361311225 66.04708432378236,17.79857361311225 C66.04708432378236,17.79857361311225 65.32786686306622,18.709072313380545 65.32786686306622,18.709072313380545 ZM75.89877799344362,18.471883576335863 C75.89877799344362,18.471883576335863 75.89877799344362,7.499991675623836 75.89877799344362,7.499991675623836 C75.89877799344362,7.499991675623836 83.42760758221672,7.499991675623836 83.42760758221672,7.499991675623836 C83.42760758221672,7.499991675623836 83.42760758221672,8.502305370877165 83.42760758221672,8.502305370877165 C83.42760758221672,8.502305370877165 77.06176792992076,8.502305370877165 77.06176792992076,8.502305370877165 C77.06176792992076,8.502305370877165 77.06176792992076,18.471883576335863 77.06176792992076,18.471883576335863 C77.06176792992076,18.471883576335863 75.89877799344362,18.471883576335863 75.89877799344362,18.471883576335863 ZM76.93934793660738,13.819923830427276 C76.93934793660738,13.819923830427276 76.93934793660738,12.817610135173945 76.93934793660738,12.817610135173945 C76.93934793660738,12.817610135173945 82.73134387024685,12.817610135173945 82.73134387024685,12.817610135173945 C82.73134387024685,12.817610135173945 82.73134387024685,13.819923830427276 82.73134387024685,13.819923830427276 C82.73134387024685,13.819923830427276 76.93934793660738,13.819923830427276 76.93934793660738,13.819923830427276 ZM88.65738611004123,18.548396072156727 Q87.46379117523574,18.548396072156727 86.51503622705702,18.012808601410672 Q85.57393252846038,17.46956988108253 85.02304255855016,16.520814932903807 Q84.47215258863993,15.572059984725081 84.47215258863993,14.347860051591244 Q84.47215258863993,13.11600886887532 85.02304255855016,12.17490517027868 Q85.57393252846038,11.233801471682042 86.50738497747493,10.705865250518075 Q87.44848867607158,10.17027777977202 88.65738611004123,10.17027777977202 Q89.88158604317508,10.17027777977202 90.8303409913538,10.705865250518075 Q91.77909593953252,11.233801471682042 92.31468341027858,12.17490517027868 Q92.85792213060672,13.11600886887532 92.85792213060672,14.347860051591244 Q92.85792213060672,15.572059984725081 92.31468341027858,16.520814932903807 Q91.77909593953252,17.46956988108253 90.82268974177171,18.012808601410672 Q89.8662835440109,18.548396072156727 88.65738611004123,18.548396072156727 Q88.65738611004123,18.548396072156727 88.65738611004123,18.548396072156727 ZM88.65738611004123,17.56138487606757 Q89.55258231114536,17.56138487606757 90.24119477353314,17.16351989779907 Q90.92980723592092,16.765654919530576 91.32767221418942,16.038786209232356 Q91.72553719245792,15.304266249352056 91.72553719245792,14.347860051591244 Q91.72553719245792,13.37615135466626 91.32767221418942,12.656933893950129 Q90.92980723592092,11.937716433234 90.24119477353314,11.539851454965502 Q89.55258231114536,11.141986476697005 88.67268860920541,11.141986476697005 Q87.79279490726546,11.141986476697005 87.10418244487768,11.539851454965502 Q86.4155699824899,11.937716433234 86.01005375463932,12.656933893950129 Q85.60453752678873,13.37615135466626 85.60453752678873,14.347860051591244 Q85.60453752678873,15.304266249352056 86.01005375463932,16.038786209232356 Q86.4155699824899,16.765654919530576 87.10418244487768,17.16351989779907 Q87.79279490726546,17.56138487606757 88.65738611004123,17.56138487606757 Q88.65738611004123,17.56138487606757 88.65738611004123,17.56138487606757 ZM95.13107550498157,18.471883576335863 C95.13107550498157,18.471883576335863 95.13107550498157,10.246790275592886 95.13107550498157,10.246790275592886 C95.13107550498157,10.246790275592886 96.19459919689159,10.246790275592886 96.19459919689159,10.246790275592886 C96.19459919689159,10.246790275592886 96.19459919689159,12.488606403144226 96.19459919689159,12.488606403144226 C96.19459919689159,12.488606403144226 96.08748170274238,12.090741424875729 96.08748170274238,12.090741424875729 Q96.43178793393626,11.157288975861178 97.24282038963744,10.667609002607641 Q98.06150409492069,10.17027777977202 99.26275027930828,10.17027777977202 Q99.26275027930828,11.249103970846216 99.26275027930828,11.249103970846216 Q99.20154028265158,11.249103970846216 99.14033028599489,11.241452721264128 Q99.07912028933819,11.233801471682042 99.0179102926815,11.233801471682042 Q97.7171978637268,11.233801471682042 96.97502665426441,12.029531428219038 Q96.24050669438411,12.817610135173945 96.24050669438411,14.27134755577038 Q96.24050669438411,18.471883576335863 96.24050669438411,18.471883576335863 C96.24050669438411,18.471883576335863 95.13107550498157,18.471883576335863 95.13107550498157,18.471883576335863 ZM104.72286579040133,21.59359340582715 Q103.59048085225253,21.59359340582715 102.55756215867085,21.26458967379743 Q101.52464346508917,20.935585941767712 100.88193850019391,20.32348597520079 Q101.44047971968622,19.47419727158919 101.44047971968622,19.47419727158919 Q102.0219746879248,19.99448224317107 102.87126339153639,20.300532226454536 Q103.72820334473008,20.606582209737994 104.68460954249089,20.606582209737994 Q106.25311570681862,20.606582209737994 106.98763566669892,19.87206224985769 Q107.72980687616132,19.14519353955947 107.72980687616132,17.60729237356009 Q107.72980687616132,15.55675748556091 107.72980687616132,15.55675748556091 C107.72980687616132,15.55675748556091 107.88283186780305,14.148927562456995 107.88283186780305,14.148927562456995 C107.88283186780305,14.148927562456995 107.77571437365383,12.733446389770995 107.77571437365383,12.733446389770995 C107.77571437365383,12.733446389770995 107.77571437365383,10.246790275592886 107.77571437365383,10.246790275592886 C107.77571437365383,10.246790275592886 108.83923806556385,10.246790275592886 108.83923806556385,10.246790275592886 C108.83923806556385,10.246790275592886 108.83923806556385,17.46956988108253 108.83923806556385,17.46956988108253 Q108.83923806556385,19.596617264902576 107.79866812240009,20.591279710573822 Q106.75809817923633,21.59359340582715 104.72286579040133,21.59359340582715 Q104.72286579040133,21.59359340582715 104.72286579040133,21.59359340582715 ZM104.51628205168498,18.158182343470315 Q103.33798961604367,18.158182343470315 102.39688591744704,17.653199871052607 Q101.46343346843248,17.140566149052813 100.92019474810434,16.23006744878452 Q100.3769560277762,15.319568748516227 100.3769560277762,14.148927562456995 Q100.3769560277762,12.970635126815676 100.92019474810434,12.075438925711556 Q101.46343346843248,11.17259147502535 102.39688591744704,10.675260252189728 Q103.33798961604367,10.17027777977202 104.51628205168498,10.17027777977202 Q105.61041074192336,10.17027777977202 106.4903044438633,10.621701505115123 Q107.37019814580324,11.073125230458226 107.88283186780305,11.968321431562345 Q108.40311683938492,12.863517632666465 108.40311683938492,14.148927562456995 Q108.40311683938492,15.434337492247526 107.88283186780305,16.329533693351642 Q107.37019814580324,17.217078644873677 106.4903044438633,17.69145611896304 Q105.61041074192336,18.158182343470315 104.51628205168498,18.158182343470315 Q104.51628205168498,18.158182343470315 104.51628205168498,18.158182343470315 ZM104.6233995458342,17.17117114738116 Q105.5338982461025,17.17117114738116 106.23781320765445,16.788608668276837 Q106.9417281692064,16.406046189172507 107.34724439705698,15.725084976366812 Q107.76041187448966,15.036472513979028 107.76041187448966,14.148927562456995 Q107.76041187448966,13.253731361352875 107.34724439705698,12.580421398129264 Q106.9417281692064,11.907111434905653 106.23781320765445,11.524548955801329 Q105.5338982461025,11.141986476697005 104.6233995458342,11.141986476697005 Q103.72820334473008,11.141986476697005 103.01663713359603,11.524548955801329 Q102.305070922462,11.907111434905653 101.90720594419349,12.580421398129264 Q101.50934096592499,13.253731361352875 101.50934096592499,14.148927562456995 Q101.50934096592499,15.036472513979028 101.90720594419349,15.725084976366812 Q102.305070922462,16.406046189172507 103.01663713359603,16.788608668276837 Q103.72820334473008,17.17117114738116 104.6233995458342,17.17117114738116 Q104.6233995458342,17.17117114738116 104.6233995458342,17.17117114738116 ZM115.43369615874175,18.548396072156727 Q114.1559374785333,18.548396072156727 113.18422878160833,18.012808601410672 Q112.21252008468333,17.46956988108253 111.6616301147731,16.520814932903807 Q111.11074014486289,15.572059984725081 111.11074014486289,14.347860051591244 Q111.11074014486289,13.131311368039492 111.63102511644476,12.190207669442854 Q112.15896133760873,11.249103970846216 113.0771112874591,10.71351650010016 Q113.99526123730949,10.17027777977202 115.14294867462246,10.17027777977202 Q116.29828736151752,10.17027777977202 117.20113481220373,10.698214000935987 Q118.10398226288993,11.21849897251787 118.61661598488973,12.167253920696593 Q119.1369009564716,13.11600886887532 119.1369009564716,14.347860051591244 Q119.1369009564716,14.432023796994194 119.12924970688952,14.516187542397146 Q119.12159845730744,14.600351287800098 119.12159845730744,14.692166282785136 Q111.96002884847448,14.692166282785136 111.96002884847448,14.692166282785136 C111.96002884847448,14.692166282785136 111.96002884847448,13.865831327919794 111.96002884847448,13.865831327919794 C111.96002884847448,13.865831327919794 118.52480098990469,13.865831327919794 118.52480098990469,13.865831327919794 C118.52480098990469,13.865831327919794 118.08867976372576,14.194835059949513 118.08867976372576,14.194835059949513 Q118.08867976372576,13.299638858845395 117.69846603503935,12.603375146875525 Q117.31590355593502,11.907111434905653 116.65789609187559,11.516897706219243 Q115.99988862781615,11.119032727950746 115.14294867462246,11.119032727950746 Q114.29365997101085,11.119032727950746 113.62035000778725,11.516897706219243 Q112.94704004456364,11.907111434905653 112.5721288150414,12.61102639645761 Q112.19721758551917,13.314941358009568 112.19721758551917,14.22544005827786 Q112.19721758551917,14.40141879866585 112.19721758551917,14.40141879866585 Q112.19721758551917,15.3348712476804 112.61038506295183,16.05408870839653 Q113.0235525403845,16.765654919530576 113.7657237498469,17.16351989779907 Q114.51554620889137,17.56138487606757 115.47195240665218,17.56138487606757 Q116.22177486569666,17.56138487606757 116.87213108017401,17.301242390276627 Q117.52248729465136,17.0334486549036 117.98921351915864,16.482558684993375 Q118.61661598488973,17.201776145709502 118.61661598488973,17.201776145709502 Q118.07337726456159,17.859783609768943 117.24704230969624,18.204089840962837 Q116.42070735483091,18.548396072156727 115.43369615874175,18.548396072156727 Q115.43369615874175,18.548396072156727 115.43369615874175,18.548396072156727 ZM125.74427800524269,18.471883576335863 C125.74427800524269,18.471883576335863 125.74427800524269,7.499991675623836 125.74427800524269,7.499991675623836 C125.74427800524269,7.499991675623836 129.85299903082313,7.499991675623836 129.85299903082313,7.499991675623836 Q131.93413891715068,7.499991675623836 133.13538510153825,8.494654121295078 Q134.33663128592582,9.489316566966323 134.33663128592582,11.264406470010389 Q134.33663128592582,12.419745156905448 133.79339256559769,13.261382610934962 Q133.25015384526955,14.103020064964475 132.2478401500162,14.546792540725493 Q131.24552645476288,14.990565016486508 129.85299903082313,14.990565016486508 Q126.38698297013796,14.990565016486508 126.38698297013796,14.990565016486508 C126.38698297013796,14.990565016486508 126.90726794171984,14.46262879532254 126.90726794171984,14.46262879532254 C126.90726794171984,14.46262879532254 126.90726794171984,18.471883576335863 126.90726794171984,18.471883576335863 C126.90726794171984,18.471883576335863 125.74427800524269,18.471883576335863 125.74427800524269,18.471883576335863 ZM133.23485134610536,18.471883576335863 C133.23485134610536,18.471883576335863 130.41919149989752,14.493233793650887 130.41919149989752,14.493233793650887 C130.41919149989752,14.493233793650887 131.67399643135974,14.493233793650887 131.67399643135974,14.493233793650887 C131.67399643135974,14.493233793650887 134.5049587767317,18.471883576335863 134.5049587767317,18.471883576335863 C134.5049587767317,18.471883576335863 133.23485134610536,18.471883576335863 133.23485134610536,18.471883576335863 ZM126.90726794171984,14.554443790307579 C126.90726794171984,14.554443790307579 126.38698297013796,14.003553820397352 126.38698297013796,14.003553820397352 C126.38698297013796,14.003553820397352 129.8223940324948,14.003553820397352 129.8223940324948,14.003553820397352 Q131.4674126926434,14.003553820397352 132.31670139625498,13.284336359681221 Q133.17364134944867,12.56511889896509 133.17364134944867,11.264406470010389 Q133.17364134944867,9.948391541891512 132.31670139625498,9.229174081175383 Q131.4674126926434,8.502305370877165 129.8223940324948,8.502305370877165 Q126.38698297013796,8.502305370877165 126.38698297013796,8.502305370877165 C126.38698297013796,8.502305370877165 126.90726794171984,7.959066650549024 126.90726794171984,7.959066650549024 C126.90726794171984,7.959066650549024 126.90726794171984,14.554443790307579 126.90726794171984,14.554443790307579 ZM140.33293949356195,18.548396072156727 Q139.0551808133535,18.548396072156727 138.0834721164285,18.012808601410672 Q137.11176341950355,17.46956988108253 136.56087344959332,16.520814932903807 Q136.0099834796831,15.572059984725081 136.0099834796831,14.347860051591244 Q136.0099834796831,13.131311368039492 136.53026845126496,12.190207669442854 Q137.05820467242893,11.249103970846216 137.9763546222793,10.71351650010016 Q138.89450457212968,10.17027777977202 140.04219200944266,10.17027777977202 Q141.1975306963377,10.17027777977202 142.10037814702392,10.698214000935987 Q143.00322559771013,11.21849897251787 143.51585931970993,12.167253920696593 Q144.0361442912918,13.11600886887532 144.0361442912918,14.347860051591244 Q144.0361442912918,14.432023796994194 144.0284930417097,14.516187542397146 Q144.02084179212764,14.600351287800098 144.02084179212764,14.692166282785136 Q136.85927218329468,14.692166282785136 136.85927218329468,14.692166282785136 C136.85927218329468,14.692166282785136 136.85927218329468,13.865831327919794 136.85927218329468,13.865831327919794 C136.85927218329468,13.865831327919794 143.4240443247249,13.865831327919794 143.4240443247249,13.865831327919794 C143.4240443247249,13.865831327919794 142.98792309854596,14.194835059949513 142.98792309854596,14.194835059949513 Q142.98792309854596,13.299638858845395 142.59770936985956,12.603375146875525 Q142.21514689075522,11.907111434905653 141.55713942669578,11.516897706219243 Q140.89913196263635,11.119032727950746 140.04219200944266,11.119032727950746 Q139.19290330583107,11.119032727950746 138.51959334260744,11.516897706219243 Q137.84628337938383,11.907111434905653 137.4713721498616,12.61102639645761 Q137.09646092033935,13.314941358009568 137.09646092033935,14.22544005827786 Q137.09646092033935,14.40141879866585 137.09646092033935,14.40141879866585 Q137.09646092033935,15.3348712476804 137.50962839777202,16.05408870839653 Q137.9227958752047,16.765654919530576 138.6649670846671,17.16351989779907 Q139.41478954371158,17.56138487606757 140.37119574147238,17.56138487606757 Q141.12101820051686,17.56138487606757 141.7713744149942,17.301242390276627 Q142.42173062947157,17.0334486549036 142.88845685397882,16.482558684993375 Q143.51585931970993,17.201776145709502 143.51585931970993,17.201776145709502 Q142.9726205993818,17.859783609768943 142.14628564451644,18.204089840962837 Q141.3199506896511,18.548396072156727 140.33293949356195,18.548396072156727 Q140.33293949356195,18.548396072156727 140.33293949356195,18.548396072156727 ZM148.51971677100713,18.548396072156727 Q147.49444932700754,18.548396072156727 146.58395062673924,18.25764858803744 Q145.68110317605306,17.966901103918154 145.16081820447116,17.530779877739224 Q145.66580067688886,16.65088617579928 145.66580067688886,16.65088617579928 Q146.1631318997245,17.0334486549036 146.9435593570973,17.308893639858717 Q147.73163806405222,17.576687375231742 148.596229266828,17.576687375231742 Q149.76687045288722,17.576687375231742 150.28715542446912,17.20942739529159 Q150.807440396051,16.84216741535144 150.807440396051,16.23006744878452 Q150.807440396051,15.778643723441418 150.5166929119317,15.518501237650476 Q150.2259454278124,15.258358751859536 149.75156795372305,15.128287508964066 Q149.28484172921577,14.990565016486508 148.7033467609772,14.89875002150147 Q148.12185179273862,14.806935026516433 147.54800807408213,14.684515033203049 Q146.98181560500774,14.554443790307579 146.5074381309184,14.317255053262897 Q146.0407119064111,14.07241506663613 145.7499644222918,13.651596339621372 Q145.45921693817255,13.22312636302453 145.45921693817255,12.519211401472573 Q145.45921693817255,11.845901438248962 145.8341281676948,11.310313967502907 Q146.209039397217,10.774726496756852 146.93590810751522,10.47632776305548 Q147.67042806739553,10.17027777977202 148.71864926014138,10.17027777977202 Q149.52203046626047,10.17027777977202 150.31776042279745,10.384512768070442 Q151.11349037933445,10.591096506786776 151.63377535091632,10.93540273798067 Q151.15174662724488,11.830598939084789 151.15174662724488,11.830598939084789 Q150.60085665733465,11.448036459980464 149.97345419160357,11.287360218756648 Q149.34605172587248,11.119032727950746 148.71864926014138,11.119032727950746 Q147.60921807073885,11.119032727950746 147.08128184957488,11.509246456637156 Q146.56099687799298,11.89180893574148 146.56099687799298,12.488606403144226 Q146.56099687799298,12.955332627651503 146.8440931125302,13.22312636302453 Q147.13484059664947,13.490920098397558 147.60921807073885,13.643945090039287 Q148.0912467944103,13.78931883209893 148.6650905130668,13.881133827083968 Q149.23893423172325,13.972948822069005 149.80512670079767,14.110671314546563 Q150.37897041945413,14.240742557442033 150.8533478935435,14.470280044904628 Q151.33537661721496,14.692166282785136 151.62612410133426,15.112985009799893 Q151.91687158545352,15.526152487232563 151.91687158545352,16.199462450456174 Q151.91687158545352,16.918679911172305 151.51135535760295,17.446616132336274 Q151.11349037933445,17.966901103918154 150.3560166707079,18.25764858803744 Q149.59854296208132,18.548396072156727 148.51971677100713,18.548396072156727 Q148.51971677100713,18.548396072156727 148.51971677100713,18.548396072156727 ZM157.44431659848425,18.548396072156727 Q156.16655791827583,18.548396072156727 155.19484922135084,18.012808601410672 Q154.22314052442584,17.46956988108253 153.6722505545156,16.520814932903807 Q153.12136058460538,15.572059984725081 153.12136058460538,14.347860051591244 Q153.12136058460538,13.131311368039492 153.64164555618729,12.190207669442854 Q154.16958177735125,11.249103970846216 155.08773172720163,10.71351650010016 Q156.005881677052,10.17027777977202 157.15356911436498,10.17027777977202 Q158.30890780126003,10.17027777977202 159.21175525194624,10.698214000935987 Q160.11460270263245,11.21849897251787 160.62723642463223,12.167253920696593 Q161.14752139621413,13.11600886887532 161.14752139621413,14.347860051591244 Q161.14752139621413,14.432023796994194 161.13987014663203,14.516187542397146 Q161.13221889704994,14.600351287800098 161.13221889704994,14.692166282785136 Q153.970649288217,14.692166282785136 153.970649288217,14.692166282785136 C153.970649288217,14.692166282785136 153.970649288217,13.865831327919794 153.970649288217,13.865831327919794 C153.970649288217,13.865831327919794 160.53542142964722,13.865831327919794 160.53542142964722,13.865831327919794 C160.53542142964722,13.865831327919794 160.09930020346826,14.194835059949513 160.09930020346826,14.194835059949513 Q160.09930020346826,13.299638858845395 159.70908647478186,12.603375146875525 Q159.32652399567755,11.907111434905653 158.6685165316181,11.516897706219243 Q158.01050906755867,11.119032727950746 157.15356911436498,11.119032727950746 Q156.30428041075336,11.119032727950746 155.63097044752976,11.516897706219243 Q154.95766048430616,11.907111434905653 154.58274925478392,12.61102639645761 Q154.20783802526168,13.314941358009568 154.20783802526168,14.22544005827786 Q154.20783802526168,14.40141879866585 154.20783802526168,14.40141879866585 Q154.20783802526168,15.3348712476804 154.62100550269435,16.05408870839653 Q155.034172980127,16.765654919530576 155.7763441895894,17.16351989779907 Q156.52616664863388,17.56138487606757 157.4825728463947,17.56138487606757 Q158.23239530543918,17.56138487606757 158.88275151991652,17.301242390276627 Q159.53310773439387,17.0334486549036 159.99983395890115,16.482558684993375 Q160.62723642463223,17.201776145709502 160.62723642463223,17.201776145709502 Q160.0839977043041,17.859783609768943 159.25766274943877,18.204089840962837 Q158.4313277945734,18.548396072156727 157.44431659848425,18.548396072156727 Q157.44431659848425,18.548396072156727 157.44431659848425,18.548396072156727 ZM168.34177319808617,18.471883576335863 C168.34177319808617,18.471883576335863 168.34177319808617,16.65088617579928 168.34177319808617,16.65088617579928 C168.34177319808617,16.65088617579928 168.28821445101158,16.360138691679992 168.28821445101158,16.360138691679992 C168.28821445101158,16.360138691679992 168.28821445101158,13.314941358009568 168.28821445101158,13.314941358009568 Q168.28821445101158,12.266720165263719 167.69906823319093,11.708178945771404 Q167.11757326495234,11.141986476697005 165.9545833284752,11.141986476697005 Q165.1588533719382,11.141986476697005 164.43198466164,11.409780212070032 Q163.71276720092385,11.669922697860972 163.21543597808824,12.11369517362199 Q162.71045350567053,11.27970896917456 162.71045350567053,11.27970896917456 Q163.3378559714016,10.744121498428507 164.21774967334156,10.461025263891308 Q165.0976433752815,10.17027777977202 166.0693520722065,10.17027777977202 Q167.66081198528047,10.17027777977202 168.53305443763836,10.958356486726927 Q169.4052968899962,11.746435193681837 169.4052968899962,13.360848855502086 Q169.4052968899962,18.471883576335863 169.4052968899962,18.471883576335863 C169.4052968899962,18.471883576335863 168.34177319808617,18.471883576335863 168.34177319808617,18.471883576335863 ZM165.5031596031321,18.548396072156727 Q164.57735840369963,18.548396072156727 163.89639719089394,18.24234608887327 Q163.21543597808824,17.936296105589808 162.85582724773016,17.400708634843753 Q162.4962185173721,16.85746991451561 162.4962185173721,16.153554952963656 Q162.4962185173721,15.51084998806839 162.80226850065557,14.990565016486508 Q163.10831848393903,14.46262879532254 163.8045821959089,14.141276312874908 Q164.50084590787876,13.819923830427276 165.671487093938,13.819923830427276 Q168.5101006888921,13.819923830427276 168.5101006888921,13.819923830427276 C168.5101006888921,13.819923830427276 168.5101006888921,14.646258785292616 168.5101006888921,14.646258785292616 C168.5101006888921,14.646258785292616 165.70209209226635,14.646258785292616 165.70209209226635,14.646258785292616 Q164.51614840704295,14.646258785292616 164.04942218253566,15.07472876188946 Q163.59034720761048,15.495547488904217 163.59034720761048,16.12294995463531 Q163.59034720761048,16.82686491618727 164.1335859279386,17.25533489278411 Q164.68447589784884,17.676153619798868 165.671487093938,17.676153619798868 Q166.61259079253463,17.676153619798868 167.29355200534033,17.247683643202024 Q167.97451321814603,16.811562417023094 168.28821445101158,15.99287871173984 Q168.54070568722042,16.765654919530576 168.54070568722042,16.765654919530576 Q168.2270044543549,17.576687375231742 167.44657699698206,18.06636734848528 Q166.67380078919132,18.548396072156727 165.5031596031321,18.548396072156727 Q165.5031596031321,18.548396072156727 165.5031596031321,18.548396072156727 ZM172.42999126580213,18.471883576335863 C172.42999126580213,18.471883576335863 172.42999126580213,10.246790275592886 172.42999126580213,10.246790275592886 C172.42999126580213,10.246790275592886 173.49351495771216,10.246790275592886 173.49351495771216,10.246790275592886 C173.49351495771216,10.246790275592886 173.49351495771216,12.488606403144226 173.49351495771216,12.488606403144226 C173.49351495771216,12.488606403144226 173.38639746356296,12.090741424875729 173.38639746356296,12.090741424875729 Q173.73070369475684,11.157288975861178 174.541736150458,10.667609002607641 Q175.36041985574127,10.17027777977202 176.56166604012884,10.17027777977202 Q176.56166604012884,11.249103970846216 176.56166604012884,11.249103970846216 Q176.50045604347216,11.249103970846216 176.43924604681544,11.241452721264128 Q176.37803605015876,11.233801471682042 176.31682605350207,11.233801471682042 Q175.01611362454736,11.233801471682042 174.27394241508497,12.029531428219038 Q173.5394224552047,12.817610135173945 173.5394224552047,14.27134755577038 Q173.5394224552047,18.471883576335863 173.5394224552047,18.471883576335863 C173.5394224552047,18.471883576335863 172.42999126580213,18.471883576335863 172.42999126580213,18.471883576335863 ZM181.92232277857818,18.548396072156727 Q180.69812284544435,18.548396072156727 179.73406539810145,18.012808601410672 Q178.77765920034062,17.46956988108253 178.22676923043042,16.520814932903807 Q177.6758792605202,15.572059984725081 177.6758792605202,14.347860051591244 Q177.6758792605202,13.11600886887532 178.22676923043042,12.17490517027868 Q178.77765920034062,11.233801471682042 179.73406539810145,10.705865250518075 Q180.69812284544435,10.17027777977202 181.92232277857818,10.17027777977202 Q182.97054397132402,10.17027777977202 183.81983267493564,10.575794007622605 Q184.66912137854723,10.981310235473188 185.15115010221868,11.799993940756442 Q184.32481514735335,12.358535160248756 184.32481514735335,12.358535160248756 Q183.8963451707565,11.731132694517663 183.2689427050254,11.440385210398379 Q182.6415402392943,11.141986476697005 181.907020279414,11.141986476697005 Q181.02712657747406,11.141986476697005 180.3232116159221,11.539851454965502 Q179.61929665437015,11.937716433234 179.21378042651958,12.656933893950129 Q178.80826419866898,13.37615135466626 178.80826419866898,14.347860051591244 Q178.80826419866898,15.319568748516227 179.21378042651958,16.046437458814445 Q179.61929665437015,16.765654919530576 180.3232116159221,17.16351989779907 Q181.02712657747406,17.56138487606757 181.907020279414,17.56138487606757 Q182.6415402392943,17.56138487606757 183.2689427050254,17.262986142366195 Q183.8963451707565,16.964587408664823 184.32481514735335,16.360138691679992 Q185.15115010221868,16.918679911172305 185.15115010221868,16.918679911172305 Q184.66912137854723,17.722061117291386 183.81983267493564,18.135228594724055 Q182.97054397132402,18.548396072156727 181.92232277857818,18.548396072156727 Q181.92232277857818,18.548396072156727 181.92232277857818,18.548396072156727 ZM187.20658657198138,18.471883576335863 C187.20658657198138,18.471883576335863 187.20658657198138,6.841984211564397 187.20658657198138,6.841984211564397 C187.20658657198138,6.841984211564397 188.31601776138393,6.841984211564397 188.31601776138393,6.841984211564397 C188.31601776138393,6.841984211564397 188.31601776138393,12.5039089023084 188.31601776138393,12.5039089023084 C188.31601776138393,12.5039089023084 188.09413152350342,12.075438925711556 188.09413152350342,12.075438925711556 Q188.49199650177192,11.187893974189524 189.3489364549656,10.682911501771816 Q190.21352765774137,10.17027777977202 191.40712259254687,10.17027777977202 Q192.4094362878002,10.17027777977202 193.16690999642677,10.552840258876344 Q193.92438370505332,10.93540273798067 194.35285368165017,11.723481444935578 Q194.7889749078291,12.5039089023084 194.7889749078291,13.689852587531806 Q194.7889749078291,18.471883576335863 194.7889749078291,18.471883576335863 C194.7889749078291,18.471883576335863 193.67954371842654,18.471883576335863 193.67954371842654,18.471883576335863 C193.67954371842654,18.471883576335863 193.67954371842654,13.804621331263103 193.67954371842654,13.804621331263103 Q193.67954371842654,12.5039089023084 193.0291875039492,11.838250188666875 Q192.37883128947186,11.17259147502535 191.20053885383052,11.17259147502535 Q190.32064515189057,11.17259147502535 189.67028893741323,11.524548955801329 Q189.0199327229359,11.876506436577307 188.6679752421599,12.542165150218832 Q188.31601776138393,13.207823863860357 188.31601776138393,14.148927562456995 Q188.31601776138393,18.471883576335863 188.31601776138393,18.471883576335863 C188.31601776138393,18.471883576335863 187.20658657198138,18.471883576335863 187.20658657198138,18.471883576335863 ZM202.1343538327942,18.471883576335863 C202.1343538327942,18.471883576335863 202.1343538327942,7.499991675623836 202.1343538327942,7.499991675623836 C202.1343538327942,7.499991675623836 203.29734376927135,7.499991675623836 203.29734376927135,7.499991675623836 C203.29734376927135,7.499991675623836 203.29734376927135,17.46956988108253 203.29734376927135,17.46956988108253 C203.29734376927135,17.46956988108253 209.4412971836868,17.46956988108253 209.4412971836868,17.46956988108253 C209.4412971836868,17.46956988108253 209.4412971836868,18.471883576335863 209.4412971836868,18.471883576335863 C209.4412971836868,18.471883576335863 202.1343538327942,18.471883576335863 202.1343538327942,18.471883576335863 ZM216.291242754365,18.471883576335863 C216.291242754365,18.471883576335863 216.291242754365,16.65088617579928 216.291242754365,16.65088617579928 C216.291242754365,16.65088617579928 216.23768400729037,16.360138691679992 216.23768400729037,16.360138691679992 C216.23768400729037,16.360138691679992 216.23768400729037,13.314941358009568 216.23768400729037,13.314941358009568 Q216.23768400729037,12.266720165263719 215.6485377894697,11.708178945771404 Q215.06704282123113,11.141986476697005 213.90405288475398,11.141986476697005 Q213.108322928217,11.141986476697005 212.3814542179188,11.409780212070032 Q211.66223675720266,11.669922697860972 211.16490553436702,12.11369517362199 Q210.6599230619493,11.27970896917456 210.6599230619493,11.27970896917456 Q211.28732552768042,10.744121498428507 212.16721922962034,10.461025263891308 Q213.0471129315603,10.17027777977202 214.01882162848528,10.17027777977202 Q215.6102815415593,10.17027777977202 216.48252399391714,10.958356486726927 Q217.354766446275,11.746435193681837 217.354766446275,13.360848855502086 Q217.354766446275,18.471883576335863 217.354766446275,18.471883576335863 C217.354766446275,18.471883576335863 216.291242754365,18.471883576335863 216.291242754365,18.471883576335863 ZM213.4526291594109,18.548396072156727 Q212.52682795997842,18.548396072156727 211.84586674717272,18.24234608887327 Q211.16490553436702,17.936296105589808 210.80529680400898,17.400708634843753 Q210.4456880736509,16.85746991451561 210.4456880736509,16.153554952963656 Q210.4456880736509,15.51084998806839 210.75173805693436,14.990565016486508 Q211.05778804021782,14.46262879532254 211.75405175218768,14.141276312874908 Q212.45031546415757,13.819923830427276 213.62095665021678,13.819923830427276 Q216.45957024517088,13.819923830427276 216.45957024517088,13.819923830427276 C216.45957024517088,13.819923830427276 216.45957024517088,14.646258785292616 216.45957024517088,14.646258785292616 C216.45957024517088,14.646258785292616 213.65156164854514,14.646258785292616 213.65156164854514,14.646258785292616 Q212.46561796332173,14.646258785292616 211.99889173881445,15.07472876188946 Q211.53981676388926,15.495547488904217 211.53981676388926,16.12294995463531 Q211.53981676388926,16.82686491618727 212.0830554842174,17.25533489278411 Q212.63394545412763,17.676153619798868 213.62095665021678,17.676153619798868 Q214.56206034881342,17.676153619798868 215.24302156161912,17.247683643202024 Q215.92398277442481,16.811562417023094 216.23768400729037,15.99287871173984 Q216.49017524349924,16.765654919530576 216.49017524349924,16.765654919530576 Q216.17647401063368,17.576687375231742 215.39604655326085,18.06636734848528 Q214.62327034547013,18.548396072156727 213.4526291594109,18.548396072156727 Q213.4526291594109,18.548396072156727 213.4526291594109,18.548396072156727 ZM224.62590434013893,18.548396072156727 Q223.53942689948263,18.548396072156727 222.67483569670688,18.05871609890319 Q221.8178957435132,17.56138487606757 221.31291327109548,16.62028117747093 Q220.81558204825984,15.679177478874292 220.81558204825984,14.347860051591244 Q220.81558204825984,13.001240125144022 221.32056452067755,12.075438925711556 Q221.83319824267735,11.141986476697005 222.69013819587104,10.659957753025555 Q223.55472939864683,10.17027777977202 224.62590434013893,10.17027777977202 Q225.79654552619814,10.17027777977202 226.7299979752127,10.698214000935987 Q227.66345042422725,11.21849897251787 228.19138664539122,12.159602671114508 Q228.72697411613728,13.100706369711146 228.72697411613728,14.347860051591244 Q228.72697411613728,15.587362483889255 228.19138664539122,16.536117432067982 Q227.66345042422725,17.484872380246706 226.7299979752127,18.020459850992758 Q225.79654552619814,18.548396072156727 224.62590434013893,18.548396072156727 Q224.62590434013893,18.548396072156727 224.62590434013893,18.548396072156727 ZM220.37946082208092,18.471883576335863 C220.37946082208092,18.471883576335863 220.37946082208092,6.841984211564397 220.37946082208092,6.841984211564397 C220.37946082208092,6.841984211564397 221.48889201148347,6.841984211564397 221.48889201148347,6.841984211564397 C221.48889201148347,6.841984211564397 221.48889201148347,12.672236393114302 221.48889201148347,12.672236393114302 C221.48889201148347,12.672236393114302 221.33586701984174,14.33255755242707 221.33586701984174,14.33255755242707 C221.33586701984174,14.33255755242707 221.44298451399095,15.99287871173984 221.44298451399095,15.99287871173984 C221.44298451399095,15.99287871173984 221.44298451399095,18.471883576335863 221.44298451399095,18.471883576335863 C221.44298451399095,18.471883576335863 220.37946082208092,18.471883576335863 220.37946082208092,18.471883576335863 ZM224.54939184431805,17.56138487606757 Q225.42163429667593,17.56138487606757 226.1102467590637,17.16351989779907 Q226.7988592214515,16.765654919530576 227.20437544930206,16.038786209232356 Q227.61754292673476,15.304266249352056 227.61754292673476,14.347860051591244 Q227.61754292673476,13.37615135466626 227.20437544930206,12.656933893950129 Q226.7988592214515,11.937716433234 226.1102467590637,11.539851454965502 Q225.42163429667593,11.141986476697005 224.54939184431805,11.141986476697005 Q223.6694981423781,11.141986476697005 222.97323443040824,11.539851454965502 Q222.27697071843838,11.937716433234 221.87145449058778,12.656933893950129 Q221.47358951231928,13.37615135466626 221.47358951231928,14.347860051591244 Q221.47358951231928,15.304266249352056 221.87145449058778,16.038786209232356 Q222.27697071843838,16.765654919530576 222.97323443040824,17.16351989779907 Q223.6694981423781,17.56138487606757 224.54939184431805,17.56138487606757 Q224.54939184431805,17.56138487606757 224.54939184431805,17.56138487606757 Z" fill="#d9822b"/>
	</g>
	<g>
		<path d="M7.917175288833833,32.63677118039728 Q7.526961560147422,32.63677118039728 7.213260327281876,32.491397438337636 Q6.89955909441633,32.346023696277996 6.670021606953735,32.08588121048705 Q6.448135369073227,31.825738724696116 6.3257153757598426,31.489083743084308 Q6.409879121162794,31.389617498517183 6.409879121162794,31.389617498517183 C6.409879121162794,31.389617498517183 6.379274122834448,32.52965368624807 6.379274122834448,32.52965368624807 C6.379274122834448,32.52965368624807 5.866640400834654,32.52965368624807 5.866640400834654,32.52965368624807 C5.866640400834654,32.52965368624807 5.866640400834654,26.270931528101322 5.866640400834654,26.270931528101322 C5.866640400834654,26.270931528101322 6.448135369073227,26.270931528101322 6.448135369073227,26.270931528101322 C6.448135369073227,26.270931528101322 6.448135369073227,28.948868881831594 6.448135369073227,28.948868881831594 C6.448135369073227,28.948868881831594 6.386925372416535,28.818797638936125 6.386925372416535,28.818797638936125 Q6.471089117819486,28.53570140439892 6.685324106117908,28.29851266735424 Q6.9072103439984165,28.061323930309563 7.220911576863962,27.90829893866783 Q7.542264059311595,27.7552739470261 7.917175288833833,27.7552739470261 Q8.529275255400751,27.7552739470261 8.973047731161769,28.053672680727473 Q9.416820206922786,28.35207141442885 9.654008943967465,28.902961384339076 Q9.898848930594234,29.446200104667216 9.898848930594234,30.196022563711693 Q9.898848930594234,30.945845022756167 9.654008943967465,31.489083743084308 Q9.416820206922786,32.03232246341245 8.973047731161769,32.33837244669591 Q8.529275255400751,32.63677118039728 7.917175288833833,32.63677118039728 Q7.917175288833833,32.63677118039728 7.917175288833833,32.63677118039728 ZM7.894221540087573,32.07822996090497 Q8.536926504982839,32.07822996090497 8.911837734505077,31.57324748848726 Q9.2944002136094,31.068265016069553 9.2944002136094,30.196022563711693 Q9.2944002136094,29.32378011135383 8.911837734505077,28.818797638936125 Q8.536926504982839,28.306163916936327 7.90187278966966,28.306163916936327 Q7.450449064326557,28.306163916936327 7.121445332296838,28.54335265398101 Q6.8000928498492055,28.772890141443604 6.624114109461216,29.201360118040448 Q6.448135369073227,29.622178845055203 6.448135369073227,30.196022563711693 Q6.448135369073227,30.754563783204006 6.624114109461216,31.18303375980085 Q6.8000928498492055,31.611503736397694 7.121445332296838,31.848692473442373 Q7.44279781474447,32.07822996090497 7.894221540087573,32.07822996090497 Q7.894221540087573,32.07822996090497 7.894221540087573,32.07822996090497 ZM11.507141219152643,33.85331986394903 C11.507141219152643,33.85331986394903 11.507141219152643,33.33303489236715 11.507141219152643,33.33303489236715 C11.507141219152643,33.33303489236715 11.981518693242005,33.33303489236715 11.981518693242005,33.33303489236715 Q12.272266177361292,33.33303489236715 12.40998866983885,33.241219897382116 Q12.555362411898493,33.14940490239708 12.631874907719357,32.91986741493448 Q12.815504897689433,32.43783869126303 12.815504897689433,32.43783869126303 C12.815504897689433,32.43783869126303 12.60126990939101,32.43783869126303 12.60126990939101,32.43783869126303 C12.60126990939101,32.43783869126303 10.826180006346945,27.854740191593226 10.826180006346945,27.854740191593226 C10.826180006346945,27.854740191593226 11.461233721660124,27.854740191593226 11.461233721660124,27.854740191593226 C11.461233721660124,27.854740191593226 12.999134887659508,31.925204969263238 12.999134887659508,31.925204969263238 C12.999134887659508,31.925204969263238 14.422267309927596,27.854740191593226 14.422267309927596,27.854740191593226 C14.422267309927596,27.854740191593226 15.057321025240775,27.854740191593226 15.057321025240775,27.854740191593226 C15.057321025240775,27.854740191593226 13.144508629719152,33.11114865448664 13.144508629719152,33.11114865448664 Q13.006786137241594,33.50136238317305 12.746643651450654,33.67734112356104 Q12.4941524152418,33.85331986394903 12.035077440316611,33.85331986394903 Q11.507141219152643,33.85331986394903 11.507141219152643,33.85331986394903 ZM23.24721783071381,31.825738724696116 C23.24721783071381,31.825738724696116 21.869992905938243,26.768262750936945 21.869992905938243,26.768262750936945 C21.869992905938243,26.768262750936945 21.938854152177022,26.768262750936945 21.938854152177022,26.768262750936945 C21.938854152177022,26.768262750936945 21.938854152177022,32.52965368624807 21.938854152177022,32.52965368624807 C21.938854152177022,32.52965368624807 21.342056684774274,32.52965368624807 21.342056684774274,32.52965368624807 C21.342056684774274,32.52965368624807 21.342056684774274,26.270931528101322 21.342056684774274,26.270931528101322 C21.342056684774274,26.270931528101322 22.260206634624655,26.270931528101322 22.260206634624655,26.270931528101322 C22.260206634624655,26.270931528101322 23.66038530814648,31.50438624224848 23.66038530814648,31.50438624224848 C23.66038530814648,31.50438624224848 23.37728907360928,31.50438624224848 23.37728907360928,31.50438624224848 C23.37728907360928,31.50438624224848 24.77746774713111,26.270931528101322 24.77746774713111,26.270931528101322 C24.77746774713111,26.270931528101322 25.695617696981486,26.270931528101322 25.695617696981486,26.270931528101322 C25.695617696981486,26.270931528101322 25.695617696981486,32.52965368624807 25.695617696981486,32.52965368624807 C25.695617696981486,32.52965368624807 25.09882022957874,32.52965368624807 25.09882022957874,32.52965368624807 C25.09882022957874,32.52965368624807 25.09882022957874,26.768262750936945 25.09882022957874,26.768262750936945 C25.09882022957874,26.768262750936945 25.16768147581752,26.768262750936945 25.16768147581752,26.768262750936945 C25.16768147581752,26.768262750936945 23.790456551041952,31.825738724696116 23.790456551041952,31.825738724696116 C23.790456551041952,31.825738724696116 23.24721783071381,31.825738724696116 23.24721783071381,31.825738724696116 ZM28.811206153210936,32.63677118039728 Q28.176152437897755,32.63677118039728 27.70942621339048,32.33837244669591 Q27.250351238465292,32.03232246341245 26.990208752674352,31.481432493502222 Q26.737717516465498,30.930542523591996 26.737717516465498,30.196022563711693 Q26.737717516465498,29.446200104667216 26.990208752674352,28.902961384339076 Q27.250351238465292,28.35207141442885 27.70942621339048,28.053672680727473 Q28.176152437897755,27.7552739470261 28.811206153210936,27.7552739470261 Q29.446259868524113,27.7552739470261 29.91298609303139,28.053672680727473 Q30.379712317538665,28.35207141442885 30.624552304165434,28.902961384339076 Q30.877043540374288,29.446200104667216 30.877043540374288,30.196022563711693 Q30.877043540374288,30.930542523591996 30.624552304165434,31.481432493502222 Q30.379712317538665,32.03232246341245 29.91298609303139,32.33837244669591 Q29.446259868524113,32.63677118039728 28.811206153210936,32.63677118039728 Q28.811206153210936,32.63677118039728 28.811206153210936,32.63677118039728 ZM28.811206153210936,32.07822996090497 Q29.492167366016634,32.07822996090497 29.882381094703042,31.57324748848726 Q30.272594823389454,31.068265016069553 30.272594823389454,30.196022563711693 Q30.272594823389454,29.32378011135383 29.882381094703042,28.818797638936125 Q29.492167366016634,28.306163916936327 28.811206153210936,28.306163916936327 Q28.12259369082315,28.306163916936327 27.73237996213674,28.818797638936125 Q27.342166233450328,29.32378011135383 27.342166233450328,30.196022563711693 Q27.342166233450328,31.068265016069553 27.73237996213674,31.57324748848726 Q28.12259369082315,32.07822996090497 28.811206153210936,32.07822996090497 Q28.811206153210936,32.07822996090497 28.811206153210936,32.07822996090497 ZM33.93907324952913,32.330721197113824 C33.93907324952913,32.330721197113824 33.93907324952913,27.418618965414296 33.93907324952913,27.418618965414296 Q33.93907324952913,27.12022023171292 33.77074575872322,26.959543990489106 Q33.61006951749941,26.791216499683202 33.311670783798036,26.791216499683202 Q32.21754209355967,26.791216499683202 32.21754209355967,26.791216499683202 C32.21754209355967,26.791216499683202 32.21754209355967,26.270931528101322 32.21754209355967,26.270931528101322 C32.21754209355967,26.270931528101322 33.326973282962214,26.270931528101322 33.326973282962214,26.270931528101322 Q33.9008170016187,26.270931528101322 34.206866984902156,26.58463276096687 Q34.5205682177677,26.890682744250327 34.5205682177677,27.464526462906814 Q34.5205682177677,32.330721197113824 34.5205682177677,32.330721197113824 C34.5205682177677,32.330721197113824 33.93907324952913,32.330721197113824 33.93907324952913,32.330721197113824 ZM32.04156335317168,32.52965368624807 C32.04156335317168,32.52965368624807 32.04156335317168,32.00936871466619 32.04156335317168,32.00936871466619 C32.04156335317168,32.00936871466619 36.150284378752126,32.00936871466619 36.150284378752126,32.00936871466619 C36.150284378752126,32.00936871466619 36.150284378752126,32.52965368624807 36.150284378752126,32.52965368624807 C36.150284378752126,32.52965368624807 32.04156335317168,32.52965368624807 32.04156335317168,32.52965368624807 ZM39.38829282829496,32.63677118039728 Q38.75323911298178,32.63677118039728 38.286512888474505,32.33837244669591 Q37.82743791354931,32.03232246341245 37.567295427758374,31.481432493502222 Q37.31480419154952,30.930542523591996 37.31480419154952,30.196022563711693 Q37.31480419154952,29.446200104667216 37.567295427758374,28.902961384339076 Q37.82743791354931,28.35207141442885 38.286512888474505,28.053672680727473 Q38.75323911298178,27.7552739470261 39.38829282829496,27.7552739470261 Q40.023346543608135,27.7552739470261 40.49007276811541,28.053672680727473 Q40.95679899262269,28.35207141442885 41.20163897924945,28.902961384339076 Q41.45413021545831,29.446200104667216 41.45413021545831,30.196022563711693 Q41.45413021545831,30.930542523591996 41.20163897924945,31.481432493502222 Q40.95679899262269,32.03232246341245 40.49007276811541,32.33837244669591 Q40.023346543608135,32.63677118039728 39.38829282829496,32.63677118039728 Q39.38829282829496,32.63677118039728 39.38829282829496,32.63677118039728 ZM39.38829282829496,32.07822996090497 Q40.069254041100656,32.07822996090497 40.45946776978707,31.57324748848726 Q40.84968149847348,31.068265016069553 40.84968149847348,30.196022563711693 Q40.84968149847348,29.32378011135383 40.45946776978707,28.818797638936125 Q40.069254041100656,28.306163916936327 39.38829282829496,28.306163916936327 Q38.69968036590717,28.306163916936327 38.30946663722076,28.818797638936125 Q37.919252908534354,29.32378011135383 37.919252908534354,30.196022563711693 Q37.919252908534354,31.068265016069553 38.30946663722076,31.57324748848726 Q38.69968036590717,32.07822996090497 39.38829282829496,32.07822996090497 Q39.38829282829496,32.07822996090497 39.38829282829496,32.07822996090497 ZM44.409040562483085,32.63677118039728 Q43.80459184549825,32.63677118039728 43.353168120155146,32.33837244669591 Q42.90939564439413,32.03232246341245 42.664555657767366,31.489083743084308 Q42.42736692072268,30.945845022756167 42.42736692072268,30.196022563711693 Q42.42736692072268,29.446200104667216 42.664555657767366,28.902961384339076 Q42.90939564439413,28.35207141442885 43.353168120155146,28.053672680727473 Q43.80459184549825,27.7552739470261 44.409040562483085,27.7552739470261 Q44.7992542911695,27.7552739470261 45.112955524035044,27.90829893866783 Q45.42665675690059,28.061323930309563 45.64089174519901,28.29851266735424 Q45.85512673349743,28.53570140439892 45.93929047890038,28.818797638936125 Q45.87808048224369,28.948868881831594 45.87808048224369,28.948868881831594 C45.87808048224369,28.948868881831594 45.87808048224369,26.270931528101322 45.87808048224369,26.270931528101322 C45.87808048224369,26.270931528101322 46.45957545048226,26.270931528101322 46.45957545048226,26.270931528101322 C46.45957545048226,26.270931528101322 46.45957545048226,32.52965368624807 46.45957545048226,32.52965368624807 C46.45957545048226,32.52965368624807 45.954592978064554,32.52965368624807 45.954592978064554,32.52965368624807 C45.954592978064554,32.52965368624807 45.91633673015412,31.389617498517183 45.91633673015412,31.389617498517183 C45.91633673015412,31.389617498517183 46.008151725139165,31.489083743084308 46.008151725139165,31.489083743084308 Q45.89338298140787,31.825738724696116 45.66384549394527,32.08588121048705 Q45.434308006482674,32.346023696277996 45.112955524035044,32.491397438337636 Q44.7992542911695,32.63677118039728 44.409040562483085,32.63677118039728 Q44.409040562483085,32.63677118039728 44.409040562483085,32.63677118039728 ZM44.431994311229346,32.07822996090497 Q44.88341803657245,32.07822996090497 45.20477051902008,31.848692473442373 Q45.52612300146771,31.611503736397694 45.7021017418557,31.18303375980085 Q45.87808048224369,30.754563783204006 45.87808048224369,30.196022563711693 Q45.87808048224369,29.622178845055203 45.7021017418557,29.201360118040448 Q45.52612300146771,28.772890141443604 45.19711926943799,28.54335265398101 Q44.87576678699036,28.306163916936327 44.42434306164726,28.306163916936327 Q43.78928934633408,28.306163916936327 43.40672686722976,28.818797638936125 Q43.03181563770752,29.32378011135383 43.03181563770752,30.196022563711693 Q43.03181563770752,31.068265016069553 43.40672686722976,31.57324748848726 Q43.78928934633408,32.07822996090497 44.431994311229346,32.07822996090497 Q44.431994311229346,32.07822996090497 44.431994311229346,32.07822996090497 ZM50.01893825045359,32.63677118039728 Q49.34562828722997,32.63677118039728 48.878902062722695,32.323069947531735 Q48.41217583821542,32.00936871466619 48.159684602006564,31.45847874475596 Q47.90719336579771,30.907588774845735 47.90719336579771,30.196022563711693 Q47.90719336579771,29.476805102995563 48.15203335242448,28.925915133085333 Q48.404524588633336,28.375025163175106 48.86359956355852,28.06897517989165 Q49.3303257880658,27.7552739470261 49.98068200254315,27.7552739470261 Q50.60808446827424,27.7552739470261 51.06715944319943,28.053672680727473 Q51.52623441812462,28.35207141442885 51.77107440475139,28.902961384339076 Q52.01591439137816,29.446200104667216 52.01591439137816,30.173068814965433 Q52.01591439137816,30.364350054517594 52.01591439137816,30.364350054517594 C52.01591439137816,30.364350054517594 48.51929333236463,30.364350054517594 48.51929333236463,30.364350054517594 Q48.549898330692976,31.190685009382936 48.94776330896148,31.63445748514395 Q49.34562828722997,32.07822996090497 50.01893825045359,32.07822996090497 Q50.52392072287129,32.07822996090497 50.852924454901014,31.833389974278198 Q51.18192818693073,31.588549987651433 51.30434818024411,31.18303375980085 Q51.92409939639312,31.228941257293368 51.92409939639312,31.228941257293368 Q51.74812065600513,31.841041223860287 51.24313818358742,32.23890620212879 Q50.7458069607518,32.63677118039728 50.01893825045359,32.63677118039728 Q50.01893825045359,32.63677118039728 50.01893825045359,32.63677118039728 ZM48.51929333236463,29.844065082935714 C48.51929333236463,29.844065082935714 51.38086067606498,29.844065082935714 51.38086067606498,29.844065082935714 Q51.33495317857246,29.094242623891237 50.96004194905022,28.704028895204825 Q50.58513071952798,28.306163916936327 49.98068200254315,28.306163916936327 Q49.36858203597623,28.306163916936327 48.97836830728982,28.704028895204825 Q48.5958058281855,29.101893873473323 48.51929333236463,29.844065082935714 Q48.51929333236463,29.844065082935714 48.51929333236463,29.844065082935714 ZM55.87367592505085,32.52965368624807 Q55.2768784576481,32.52965368624807 54.963177224782555,32.2312549525467 Q54.64947599191701,31.932856218845323 54.64947599191701,31.33605875144258 Q54.64947599191701,26.768262750936945 54.64947599191701,26.768262750936945 C54.64947599191701,26.768262750936945 55.23097096015559,26.768262750936945 55.23097096015559,26.768262750936945 C55.23097096015559,26.768262750936945 55.23097096015559,31.35901250018884 55.23097096015559,31.35901250018884 Q55.23097096015559,31.68036498263647 55.3916472013794,31.848692473442373 Q55.55232344260322,32.00936871466619 55.866024675468765,32.00936871466619 Q57.128480856513036,32.00936871466619 57.128480856513036,32.00936871466619 C57.128480856513036,32.00936871466619 57.128480856513036,32.52965368624807 57.128480856513036,32.52965368624807 C57.128480856513036,32.52965368624807 55.87367592505085,32.52965368624807 55.87367592505085,32.52965368624807 ZM53.073318578007196,28.375025163175106 C53.073318578007196,28.375025163175106 53.073318578007196,27.854740191593226 53.073318578007196,27.854740191593226 C53.073318578007196,27.854740191593226 57.128480856513036,27.854740191593226 57.128480856513036,27.854740191593226 C57.128480856513036,27.854740191593226 57.128480856513036,28.375025163175106 57.128480856513036,28.375025163175106 C57.128480856513036,28.375025163175106 53.073318578007196,28.375025163175106 53.073318578007196,28.375025163175106 ZM60.62663365982766,32.63677118039728 Q60.029836192424916,32.63677118039728 59.59371496624598,32.43018744168094 Q59.15759374006706,32.22360370296461 58.9051025038582,31.87929747177072 Q58.66026251723143,31.52733999099474 58.62965751890309,31.09121876481581 Q59.23410623588792,31.045311267323292 59.23410623588792,31.045311267323292 Q59.295316232544614,31.519688741412654 59.647273713320594,31.802784975949855 Q59.999231194096566,32.07822996090497 60.62663365982766,32.07822996090497 Q61.223431127230405,32.07822996090497 61.53713236009595,31.89459997093489 Q61.8508335929615,31.710969980964816 61.8508335929615,31.33605875144258 Q61.8508335929615,31.121823763144157 61.751367348394375,30.976450021084514 Q61.65190110382725,30.823425029442785 61.36115361970796,30.716307535293573 Q61.07040613558868,30.601538791562277 60.4889111673501,30.50207254699515 Q59.807949954544405,30.379652553681765 59.43303872502217,30.211325062875865 Q59.05812749549993,30.035346322487875 58.912753753440285,29.775203836696935 Q58.767380011380645,29.507410101323906 58.767380011380645,29.13249887180167 Q58.767380011380645,28.726982643951086 58.966312500514896,28.420932660667624 Q59.17289623923123,28.114882677384166 59.55545871833555,27.938903936996176 Q59.93802119743988,27.7552739470261 60.49656241693219,27.7552739470261 Q61.062754886006594,27.7552739470261 61.44531736511092,27.961857685742437 Q61.82787984421524,28.160790174876684 62.04976608209575,28.489793906906403 Q62.279303569558344,28.818797638936125 62.34816481579712,29.21666261720462 Q61.7360648492302,29.270221364279227 61.7360648492302,29.270221364279227 Q61.6825061021556,28.99477637932411 61.52948111051386,28.78054139102569 Q61.376456118872134,28.56630640272727 61.1163136330812,28.4362351598318 Q60.856171147290254,28.306163916936327 60.4889111673501,28.306163916936327 Q59.93036994785779,28.306163916936327 59.647273713320594,28.53570140439892 Q59.36417747878339,28.765238891861518 59.36417747878339,29.13249887180167 Q59.36417747878339,29.4002926071747 59.478946222514686,29.560968848398513 Q59.59371496624598,29.721645089622328 59.8691599512011,29.821111334189453 Q60.152256185738295,29.91292632917449 60.63428490940975,29.989438824995357 Q61.3381998709617,30.096556319144568 61.7360648492302,30.272535059532558 Q62.1339298274987,30.448513799920544 62.294606068722516,30.708656285711484 Q62.455282309946334,30.96114752192034 62.455282309946334,31.33605875144258 Q62.455282309946334,31.741574979293162 62.22574482248374,32.03997371299454 Q61.99620733502114,32.330721197113824 61.583039857588474,32.48374618875555 Q61.17752362973789,32.63677118039728 60.62663365982766,32.63677118039728 Q60.62663365982766,32.63677118039728 60.62663365982766,32.63677118039728 ZM68.7629754541878,32.52965368624807 C68.7629754541878,32.52965368624807 70.72169534720194,26.270931528101322 70.72169534720194,26.270931528101322 C70.72169534720194,26.270931528101322 71.50977405415685,26.270931528101322 71.50977405415685,26.270931528101322 C71.50977405415685,26.270931528101322 73.468493947171,32.52965368624807 73.468493947171,32.52965368624807 C73.468493947171,32.52965368624807 72.82578898227572,32.52965368624807 72.82578898227572,32.52965368624807 C72.82578898227572,32.52965368624807 71.11956032547045,26.829472747593634 71.11956032547045,26.829472747593634 C71.11956032547045,26.829472747593634 69.40568041908307,32.52965368624807 69.40568041908307,32.52965368624807 C69.40568041908307,32.52965368624807 68.7629754541878,32.52965368624807 68.7629754541878,32.52965368624807 ZM69.69642790320235,30.65509753863688 C69.69642790320235,30.65509753863688 69.9030116419187,30.073602570398307 69.9030116419187,30.073602570398307 C69.9030116419187,30.073602570398307 72.3361090090222,30.073602570398307 72.3361090090222,30.073602570398307 C72.3361090090222,30.073602570398307 72.53504149815645,30.65509753863688 72.53504149815645,30.65509753863688 C72.53504149815645,30.65509753863688 69.69642790320235,30.65509753863688 69.69642790320235,30.65509753863688 ZM76.24742928976949,32.330721197113824 C76.24742928976949,32.330721197113824 76.24742928976949,27.418618965414296 76.24742928976949,27.418618965414296 Q76.24742928976949,27.12022023171292 76.07910179896359,26.959543990489106 Q75.91842555773977,26.791216499683202 75.6200268240384,26.791216499683202 Q74.52589813380003,26.791216499683202 74.52589813380003,26.791216499683202 C74.52589813380003,26.791216499683202 74.52589813380003,26.270931528101322 74.52589813380003,26.270931528101322 C74.52589813380003,26.270931528101322 75.63532932320257,26.270931528101322 75.63532932320257,26.270931528101322 Q76.20917304185906,26.270931528101322 76.51522302514252,26.58463276096687 Q76.82892425800806,26.890682744250327 76.82892425800806,27.464526462906814 Q76.82892425800806,32.330721197113824 76.82892425800806,32.330721197113824 C76.82892425800806,32.330721197113824 76.24742928976949,32.330721197113824 76.24742928976949,32.330721197113824 ZM74.34991939341204,32.52965368624807 C74.34991939341204,32.52965368624807 74.34991939341204,32.00936871466619 74.34991939341204,32.00936871466619 C74.34991939341204,32.00936871466619 78.45864041899249,32.00936871466619 78.45864041899249,32.00936871466619 C78.45864041899249,32.00936871466619 78.45864041899249,32.52965368624807 78.45864041899249,32.52965368624807 C78.45864041899249,32.52965368624807 74.34991939341204,32.52965368624807 74.34991939341204,32.52965368624807 ZM81.75020948359078,32.63677118039728 Q81.07689952036716,32.63677118039728 80.6101732958599,32.323069947531735 Q80.14344707135261,32.00936871466619 79.89095583514376,31.45847874475596 Q79.6384645989349,30.907588774845735 79.6384645989349,30.196022563711693 Q79.6384645989349,29.476805102995563 79.88330458556167,28.925915133085333 Q80.13579582177053,28.375025163175106 80.59487079669572,28.06897517989165 Q81.061597021203,27.7552739470261 81.71195323568034,27.7552739470261 Q82.33935570141144,27.7552739470261 82.79843067633662,28.053672680727473 Q83.25750565126182,28.35207141442885 83.50234563788858,28.902961384339076 Q83.74718562451535,29.446200104667216 83.74718562451535,30.173068814965433 Q83.74718562451535,30.364350054517594 83.74718562451535,30.364350054517594 C83.74718562451535,30.364350054517594 80.25056456550183,30.364350054517594 80.25056456550183,30.364350054517594 Q80.28116956383018,31.190685009382936 80.67903454209868,31.63445748514395 Q81.07689952036716,32.07822996090497 81.75020948359078,32.07822996090497 Q82.25519195600849,32.07822996090497 82.5841956880382,31.833389974278198 Q82.91319942006793,31.588549987651433 83.03561941338131,31.18303375980085 Q83.65537062953031,31.228941257293368 83.65537062953031,31.228941257293368 Q83.47939188914232,31.841041223860287 82.97440941672461,32.23890620212879 Q82.477078193889,32.63677118039728 81.75020948359078,32.63677118039728 Q81.75020948359078,32.63677118039728 81.75020948359078,32.63677118039728 ZM80.25056456550183,29.844065082935714 C80.25056456550183,29.844065082935714 83.11213190920218,29.844065082935714 83.11213190920218,29.844065082935714 Q83.06622441170965,29.094242623891237 82.69131318218741,28.704028895204825 Q82.31640195266517,28.306163916936327 81.71195323568034,28.306163916936327 Q81.09985326911342,28.306163916936327 80.70963954042702,28.704028895204825 Q80.3270770613227,29.101893873473323 80.25056456550183,29.844065082935714 Q80.25056456550183,29.844065082935714 80.25056456550183,29.844065082935714 ZM85.20245478941288,32.52965368624807 C85.20245478941288,32.52965368624807 85.20245478941288,26.270931528101322 85.20245478941288,26.270931528101322 C85.20245478941288,26.270931528101322 85.78394975765146,26.270931528101322 85.78394975765146,26.270931528101322 C85.78394975765146,26.270931528101322 85.78394975765146,30.517375046159323 85.78394975765146,30.517375046159323 C85.78394975765146,30.517375046159323 88.31651336932208,27.854740191593226 88.31651336932208,27.854740191593226 C88.31651336932208,27.854740191593226 89.08928957711282,27.854740191593226 89.08928957711282,27.854740191593226 C89.08928957711282,27.854740191593226 87.1764771815912,29.8517163325178 87.1764771815912,29.8517163325178 C87.1764771815912,29.8517163325178 89.21170957042621,32.52965368624807 89.21170957042621,32.52965368624807 C89.21170957042621,32.52965368624807 88.50779460887425,32.52965368624807 88.50779460887425,32.52965368624807 C88.50779460887425,32.52965368624807 86.77861220332271,30.234278811622126 86.77861220332271,30.234278811622126 C86.77861220332271,30.234278811622126 85.78394975765146,31.259546255621714 85.78394975765146,31.259546255621714 C85.78394975765146,31.259546255621714 85.78394975765146,32.52965368624807 85.78394975765146,32.52965368624807 C85.78394975765146,32.52965368624807 85.20245478941288,32.52965368624807 85.20245478941288,32.52965368624807 ZM92.35790489296485,32.63677118039728 Q91.76110742556212,32.63677118039728 91.32498619938318,32.43018744168094 Q90.88886497320425,32.22360370296461 90.6363737369954,31.87929747177072 Q90.39153375036862,31.52733999099474 90.36092875204028,31.09121876481581 Q90.96537746902511,31.045311267323292 90.96537746902511,31.045311267323292 Q91.0265874656818,31.519688741412654 91.37854494645778,31.802784975949855 Q91.73050242723376,32.07822996090497 92.35790489296485,32.07822996090497 Q92.9547023603676,32.07822996090497 93.26840359323315,31.89459997093489 Q93.5821048260987,31.710969980964816 93.5821048260987,31.33605875144258 Q93.5821048260987,31.121823763144157 93.48263858153157,30.976450021084514 Q93.38317233696445,30.823425029442785 93.09242485284516,30.716307535293573 Q92.80167736872588,30.601538791562277 92.2201824004873,30.50207254699515 Q91.5392211876816,30.379652553681765 91.16430995815936,30.211325062875865 Q90.78939872863712,30.035346322487875 90.64402498657748,29.775203836696935 Q90.49865124451784,29.507410101323906 90.49865124451784,29.13249887180167 Q90.49865124451784,28.726982643951086 90.69758373365208,28.420932660667624 Q90.90416747236843,28.114882677384166 91.28672995147275,27.938903936996176 Q91.66929243057707,27.7552739470261 92.22783365006939,27.7552739470261 Q92.79402611914378,27.7552739470261 93.17658859824812,27.961857685742437 Q93.55915107735244,28.160790174876684 93.78103731523294,28.489793906906403 Q94.01057480269554,28.818797638936125 94.07943604893431,29.21666261720462 Q93.4673360823674,29.270221364279227 93.4673360823674,29.270221364279227 Q93.41377733529279,28.99477637932411 93.26075234365106,28.78054139102569 Q93.10772735200933,28.56630640272727 92.8475848662184,28.4362351598318 Q92.58744238042745,28.306163916936327 92.2201824004873,28.306163916936327 Q91.66164118099499,28.306163916936327 91.37854494645778,28.53570140439892 Q91.09544871192058,28.765238891861518 91.09544871192058,29.13249887180167 Q91.09544871192058,29.4002926071747 91.21021745565189,29.560968848398513 Q91.32498619938318,29.721645089622328 91.60043118433829,29.821111334189453 Q91.88352741887549,29.91292632917449 92.36555614254694,29.989438824995357 Q93.0694711040989,30.096556319144568 93.4673360823674,30.272535059532558 Q93.8652010606359,30.448513799920544 94.02587730185971,30.708656285711484 Q94.18655354308353,30.96114752192034 94.18655354308353,31.33605875144258 Q94.18655354308353,31.741574979293162 93.95701605562093,32.03997371299454 Q93.72747856815833,32.330721197113824 93.31431109072567,32.48374618875555 Q92.90879486287508,32.63677118039728 92.35790489296485,32.63677118039728 Q92.35790489296485,32.63677118039728 92.35790489296485,32.63677118039728 ZM96.95018638651786,32.63677118039728 Q96.51406516033892,32.63677118039728 96.16210767956294,32.476094939173464 Q95.81780144836905,32.31541869794965 95.6188689592348,32.03997371299454 Q95.41993647010055,31.756877478457334 95.41993647010055,31.37431499935301 Q95.41993647010055,30.792820031114438 95.79484769962279,30.471467548666805 Q96.16975892914503,30.142463816637086 96.88132514027907,29.997090074577443 Q98.53399505000975,29.67573759212981 98.53399505000975,29.67573759212981 Q98.53399505000975,28.971822630577854 98.23559631630839,28.642818898548136 Q97.9448488321891,28.306163916936327 97.38630761269678,28.306163916936327 Q96.84306889236863,28.306163916936327 96.53701890908518,28.56630640272727 Q96.23096892580172,28.818797638936125 96.12385143165251,29.285523863443398 Q95.5041002155035,29.231965116368794 95.5041002155035,29.231965116368794 Q95.63417145839898,28.551003903563096 96.11620018207043,28.1531389252946 Q96.60588015532396,27.7552739470261 97.38630761269678,27.7552739470261 Q98.21264256756213,27.7552739470261 98.66406629290522,28.252605169861724 Q99.12314126783042,28.742285143115257 99.12314126783042,29.652783843383553 Q99.12314126783042,31.603852486815605 99.12314126783042,31.603852486815605 Q99.12314126783042,31.841041223860287 99.19965376365128,31.925204969263238 Q99.27616625947215,32.00936871466619 99.44449375027804,32.00936871466619 Q99.73524123439734,32.00936871466619 99.73524123439734,32.00936871466619 C99.73524123439734,32.00936871466619 99.73524123439734,32.52965368624807 99.73524123439734,32.52965368624807 Q99.68168248732273,32.53730493583016 99.57456499317351,32.53730493583016 Q99.4750987486064,32.544956185412246 99.37563250403927,32.544956185412246 Q99.10018751908416,32.544956185412246 98.91655752911407,32.4531411904272 Q98.732927539144,32.36132619544217 98.63346129457688,32.13943995756166 Q98.53399505000975,31.909902470099066 98.52634380042767,31.534991240576826 Q98.64111254415897,31.534991240576826 98.64111254415897,31.534991240576826 Q98.57225129792019,31.841041223860287 98.32741131129342,32.09353246006914 Q98.09022257424874,32.346023696277996 97.73061384389068,32.491397438337636 Q97.3710051135326,32.63677118039728 96.95018638651786,32.63677118039728 Q96.95018638651786,32.63677118039728 96.95018638651786,32.63677118039728 ZM97.00374513359246,32.1164862088154 Q97.48577385726391,32.1164862088154 97.83008008845779,31.940507468427413 Q98.17438631965169,31.756877478457334 98.35036506003968,31.435524996009704 Q98.53399505000975,31.11417251356207 98.53399505000975,30.693353786547313 Q98.53399505000975,30.188371314129604 98.53399505000975,30.188371314129604 C98.53399505000975,30.188371314129604 97.00374513359246,30.48677004783098 97.00374513359246,30.48677004783098 Q96.49876266117475,30.578585042816016 96.26157392413006,30.785168781532352 Q96.03203643666747,30.9841012706666 96.03203643666747,31.320756252278407 Q96.03203643666747,31.70331873138273 96.28452767287632,31.909902470099066 Q96.54467015866727,32.1164862088154 97.00374513359246,32.1164862088154 Q97.00374513359246,32.1164862088154 97.00374513359246,32.1164862088154 ZM101.0068804093248,32.52965368624807 C101.0068804093248,32.52965368624807 101.0068804093248,27.854740191593226 101.0068804093248,27.854740191593226 C101.0068804093248,27.854740191593226 101.53481663048876,27.854740191593226 101.53481663048876,27.854740191593226 C101.53481663048876,27.854740191593226 101.55777037923502,29.08659137430915 101.55777037923502,29.08659137430915 C101.55777037923502,29.08659137430915 101.48890913299624,29.033032627234544 101.48890913299624,29.033032627234544 Q101.55777037923502,28.596911401055614 101.78730786669762,28.313815166518417 Q102.02449660374229,28.030718931981216 102.3611515853541,27.89299643950366 Q102.70545781654799,27.7552739470261 103.08802029565231,27.7552739470261 Q103.62360776639837,27.7552739470261 103.97556524717434,27.992462684070784 Q104.32752272795032,28.229651421115463 104.50350146833831,28.635167648966046 Q104.6871314583084,29.033032627234544 104.6871314583084,29.52271260048808 Q104.6871314583084,32.52965368624807 104.6871314583084,32.52965368624807 C104.6871314583084,32.52965368624807 104.10563649006983,32.52965368624807 104.10563649006983,32.52965368624807 C104.10563649006983,32.52965368624807 104.10563649006983,29.736947588786503 104.10563649006983,29.736947588786503 Q104.10563649006983,29.04833512639872 103.83019150511471,28.665772647294393 Q103.56239776974168,28.275558918607985 102.96560030233893,28.275558918607985 Q102.56773532407044,28.275558918607985 102.25403409120489,28.45153765899597 Q101.94033285833935,28.62751639938396 101.76435411795136,28.95652013141368 Q101.58837537756337,29.277872613861312 101.58837537756337,29.736947588786503 Q101.58837537756337,32.52965368624807 101.58837537756337,32.52965368624807 C101.58837537756337,32.52965368624807 101.0068804093248,32.52965368624807 101.0068804093248,32.52965368624807 ZM107.87158302875747,32.63677118039728 Q107.26713431177264,32.63677118039728 106.81571058642955,32.33837244669591 Q106.37193811066852,32.03232246341245 106.12709812404175,31.489083743084308 Q105.88990938699708,30.945845022756167 105.88990938699708,30.196022563711693 Q105.88990938699708,29.446200104667216 106.12709812404175,28.902961384339076 Q106.37193811066852,28.35207141442885 106.81571058642955,28.053672680727473 Q107.26713431177264,27.7552739470261 107.87158302875747,27.7552739470261 Q108.26179675744389,27.7552739470261 108.57549799030943,27.90829893866783 Q108.88919922317498,28.061323930309563 109.1034342114734,28.29851266735424 Q109.31766919977183,28.53570140439892 109.40183294517477,28.818797638936125 Q109.34062294851807,28.948868881831594 109.34062294851807,28.948868881831594 C109.34062294851807,28.948868881831594 109.34062294851807,26.270931528101322 109.34062294851807,26.270931528101322 C109.34062294851807,26.270931528101322 109.92211791675665,26.270931528101322 109.92211791675665,26.270931528101322 C109.92211791675665,26.270931528101322 109.92211791675665,32.52965368624807 109.92211791675665,32.52965368624807 C109.92211791675665,32.52965368624807 109.41713544433894,32.52965368624807 109.41713544433894,32.52965368624807 C109.41713544433894,32.52965368624807 109.37887919642851,31.389617498517183 109.37887919642851,31.389617498517183 C109.37887919642851,31.389617498517183 109.47069419141356,31.489083743084308 109.47069419141356,31.489083743084308 Q109.35592544768225,31.825738724696116 109.12638796021966,32.08588121048705 Q108.89685047275707,32.346023696277996 108.57549799030943,32.491397438337636 Q108.26179675744389,32.63677118039728 107.87158302875747,32.63677118039728 Q107.87158302875747,32.63677118039728 107.87158302875747,32.63677118039728 ZM107.89453677750373,32.07822996090497 Q108.34596050284684,32.07822996090497 108.66731298529447,31.848692473442373 Q108.98866546774211,31.611503736397694 109.16464420813008,31.18303375980085 Q109.34062294851807,30.754563783204006 109.34062294851807,30.196022563711693 Q109.34062294851807,29.622178845055203 109.16464420813008,29.201360118040448 Q108.98866546774211,28.772890141443604 108.65966173571238,28.54335265398101 Q108.33830925326475,28.306163916936327 107.88688552792165,28.306163916936327 Q107.25183181260847,28.306163916936327 106.86926933350415,28.818797638936125 Q106.49435810398191,29.32378011135383 106.49435810398191,30.196022563711693 Q106.49435810398191,31.068265016069553 106.86926933350415,31.57324748848726 Q107.25183181260847,32.07822996090497 107.89453677750373,32.07822996090497 Q107.89453677750373,32.07822996090497 107.89453677750373,32.07822996090497 ZM111.5992733195347,32.52965368624807 C111.5992733195347,32.52965368624807 111.5992733195347,32.00936871466619 111.5992733195347,32.00936871466619 C111.5992733195347,32.00936871466619 113.14482573511617,32.00936871466619 113.14482573511617,32.00936871466619 C113.14482573511617,32.00936871466619 112.86172950057897,32.29246494920339 112.86172950057897,32.29246494920339 C112.86172950057897,32.29246494920339 112.86172950057897,28.099580178219995 112.86172950057897,28.099580178219995 C112.86172950057897,28.099580178219995 113.14482573511617,28.375025163175106 113.14482573511617,28.375025163175106 C113.14482573511617,28.375025163175106 111.5992733195347,28.375025163175106 111.5992733195347,28.375025163175106 C111.5992733195347,28.375025163175106 111.5992733195347,27.854740191593226 111.5992733195347,27.854740191593226 C111.5992733195347,27.854740191593226 113.34375822425042,27.854740191593226 113.34375822425042,27.854740191593226 C113.34375822425042,27.854740191593226 113.40496822090711,29.08659137430915 113.40496822090711,29.08659137430915 C113.40496822090711,29.08659137430915 113.34375822425042,29.04068387681663 113.34375822425042,29.04068387681663 Q113.45087571839963,28.45153765899597 113.749274452101,28.1531389252946 Q114.04767318580237,27.854740191593226 114.56030690780217,27.854740191593226 Q115.47845685765255,27.854740191593226 115.47845685765255,27.854740191593226 C115.47845685765255,27.854740191593226 115.47845685765255,28.397978911921367 115.47845685765255,28.397978911921367 C115.47845685765255,28.397978911921367 114.55265565822008,28.397978911921367 114.55265565822008,28.397978911921367 Q114.20834942702619,28.397978911921367 113.96350944039942,28.55865515314518 Q113.71866945377265,28.71168014478691 113.5809469612951,29.002427628906197 Q113.44322446881755,29.293175113025484 113.44322446881755,29.683388841711896 Q113.44322446881755,32.29246494920339 113.44322446881755,32.29246494920339 C113.44322446881755,32.29246494920339 113.16777948386243,32.00936871466619 113.16777948386243,32.00936871466619 C113.16777948386243,32.00936871466619 114.95052063648858,32.00936871466619 114.95052063648858,32.00936871466619 C114.95052063648858,32.00936871466619 114.95052063648858,32.52965368624807 114.95052063648858,32.52965368624807 C114.95052063648858,32.52965368624807 111.5992733195347,32.52965368624807 111.5992733195347,32.52965368624807 Z" fill="#ffffff"/>
	</g>
</g></g></svg>